{"title":"Shaayraana - Holiday (2014) - Official Video Song ft Akshay, Son","uid":10062460,"size":55664243,"categoryP":"video","categoryS":"music_videos","magnet":"?xt=urn:btih:872f5b2f1ecec0b25fe14fc9faa55859f690685d&amp;dn=Shaayraana+-+Holiday+%282014%29+-+Official+Video+Song+ft+Akshay%2C+Son&amp;tr=udp%3A%2F%2Ftracker.openbittorrent.com%3A80&amp;tr=udp%3A%2F%2Fopen.demonii.com%3A1337&amp;tr=udp%3A%2F%2Ftracker.coppersurfer.tk%3A6969&amp;tr=udp%3A%2F%2Fexodus.desync.com%3A6969","seeders":1,"leechers":0,"uploader":"Palash995","files":1,"time":1398748828,"description":"Shaayraana - Holiday (2014) - Official Video Song ft Akshay, Sonakshi HD 1080p\n &lt;a href=&quot;\nhttp://s26.postimg.org/sg951zgkp/shaayraana_hq.jpg&quot; rel=&quot;nofollow&quot; target=&quot;_NEW&quot;&gt;\nhttp://s26.postimg.org/sg951zgkp/shaayraana_hq.jpg&lt;/a&gt;\n\nWatch &quot;HOLIDAY - A Soldier Is Never Off Duty&quot;'s second track 'Shaayraana'.\n\nSinger - Arijit Singh\nLyrics - Irshad Kamil\n\nMovie : &quot;HOLIDAY&quot; - A Soldier Is Never Off Duty\nStarring : Akshay Kumar,Sonakshi Sinha\nDirected : A.R. Murugadoss\nProducer : Aruna Bhatia,Vipul Shah,Reliance Entertainment\nWritten : A.R. Murugadoss\nMusic : Pritam\n\nScreenshots:-\n &lt;a href=&quot;\nhttp://s26.postimg.org/wj0612ap5/vlcsnap_2014_04_29_01h11m32s225.jpg&quot; rel=&quot;nofollow&quot; target=&quot;_NEW&quot;&gt;\nhttp://s26.postimg.org/wj0612ap5/vlcsnap_2014_04_29_01h11m32s225.jpg&lt;/a&gt;\n &lt;a href=&quot;\nhttp://s26.postimg.org/5z7kyxa5l/vlcsnap_2014_04_29_01h12m08s79.jpg&quot; rel=&quot;nofollow&quot; target=&quot;_NEW&quot;&gt;\nhttp://s26.postimg.org/5z7kyxa5l/vlcsnap_2014_04_29_01h12m08s79.jpg&lt;/a&gt;\n &lt;a href=&quot;\nhttp://s26.postimg.org/q7uykn9gp/vlcsnap_2014_04_29_01h12m15s150.jpg&quot; rel=&quot;nofollow&quot; target=&quot;_NEW&quot;&gt;\nhttp://s26.postimg.org/q7uykn9gp/vlcsnap_2014_04_29_01h12m15s150.jpg&lt;/a&gt;\n &lt;a href=&quot;\nhttp://s26.postimg.org/q99hrt0o9/vlcsnap_2014_04_29_01h13m13s195.jpg&quot; rel=&quot;nofollow&quot; target=&quot;_NEW&quot;&gt;\nhttp://s26.postimg.org/q99hrt0o9/vlcsnap_2014_04_29_01h13m13s195.jpg&lt;/a&gt;\n\nMedia Info:-\n\nGeneral\nComplete name : Shaayraana - Holiday (2014) - Official Video Song ft Akshay, Sonakshi HD 1080p {DAKU RG} {GreatPalash}.mp4\nFormat : MPEG-4\nFormat profile : Base Media\nCodec ID : isom\nFile size : 53.1 MiB\nDuration : 2mn 7s\nOverall bit rate mode : Variable\nOverall bit rate : 3 488 Kbps\nWriting application : Lavf53.31.100\n\nVideo\nID : 1\nFormat : AVC\nFormat/Info : Advanced Video Codec\nFormat profile : &lt;a class=&quot;__cf_email__&quot; href=&quot;/cdn-cgi/l/email-protection&quot; data-cfemail=&quot;d79fbeb0bf979be3f9e6&quot;&gt;[email&amp;#160;protected]&lt;/a&gt;&lt;script cf-hash='f9e31' type=&quot;text/javascript&quot;&gt;\n/* &lt;![CDATA[ */!function(){try{var t=&quot;currentScript&quot;in document?document.currentScript:function(){for(var t=document.getElementsByTagName(&quot;script&quot;),e=t.length;e--;)if(t[e].getAttribute(&quot;cf-hash&quot;))return t[e]}();if(t&amp;&amp;t.previousSibling){var e,r,n,i,c=t.previousSibling,a=c.getAttribute(&quot;data-cfemail&quot;);if(a){for(e=&quot;&quot;,r=parseInt(a.substr(0,2),16),n=2;a.length-n;n+=2)i=parseInt(a.substr(n,2),16)^r,e+=String.fromCharCode(i);e=document.createTextNode(e),c.parentNode.replaceChild(e,c)}}}catch(u){}}();/* ]]&gt; */&lt;/script&gt;\nFormat settings, CABAC : Yes\nFormat settings, ReFrames : 3 frames\nCodec ID : avc1\nCodec ID/Info : Advanced Video Coding\nDuration : 2mn 7s\nBit rate mode : Variable\nBit rate : 3 356 Kbps\nMaximum bit rate : 19.2 Mbps\nWidth : 1 920 pixels\nHeight : 1 080 pixels\nDisplay aspect ratio : 16:9\nFrame rate mode : Constant\nFrame rate : 25.000 fps\nStandard : PAL\nColor space : YUV\nChroma subsampling : 4:2:0\nBit depth : 8 bits\nScan type : Progressive\nBits/(Pixel*Frame) : 0.065\nStream size : 51.1 MiB (96%)\nColor primaries : BT.709\nTransfer characteristics : BT.709\nMatrix coefficients : BT.709\n\nAudio\nID : 2\nFormat : AAC\nFormat/Info : Advanced Audio Codec\nFormat profile : LC\nCodec ID : 40\nDuration : 2mn 7s\nBit rate mode : Constant\nBit rate : 126 Kbps\nChannel(s) : 2 channels\nChannel positions : Front: L R\nSampling rate : 44.1 KHz\nCompression mode : Lossy\nStream size : 1.91 MiB (4%)","torrent":{"xt":"urn:btih:872f5b2f1ecec0b25fe14fc9faa55859f690685d","amp;dn":"Shaayraana+-+Holiday+%282014%29+-+Official+Video+Song+ft+Akshay%2C+Son","amp;tr":["udp%3A%2F%2Ftracker.openbittorrent.com%3A80","udp%3A%2F%2Fopen.demonii.com%3A1337","udp%3A%2F%2Ftracker.coppersurfer.tk%3A6969","udp%3A%2F%2Fexodus.desync.com%3A6969"],"infoHash":"872f5b2f1ecec0b25fe14fc9faa55859f690685d","infoHashBuffer":{"type":"Buffer","data":[135,47,91,47,30,206,192,178,95,225,79,201,250,165,88,89,246,144,104,93]},"announce":[],"urlList":[]}}